<mxfile host="app.diagrams.net" modified="2024-01-30T23:58:37.365Z" agent="Mozilla/5.0 (Windows NT 10.0; Win64; x64) AppleWebKit/537.36 (KHTML, like Gecko) Chrome/121.0.0.0 Safari/537.36" etag="GVRJxirg6cBVOb9mzGMO" version="23.0.2" type="device">
  <diagram id="5XK8QlfNFUtluHXEVsSS" name="Page-1">
    <mxGraphModel dx="882" dy="578" grid="1" gridSize="10" guides="1" tooltips="1" connect="1" arrows="1" fold="1" page="1" pageScale="1" pageWidth="850" pageHeight="1100" math="0" shadow="0">
      <root>
        <mxCell id="0" />
        <mxCell id="1" parent="0" />
        <mxCell id="SUlFPc-Yo__g182zqWEV-13" style="edgeStyle=orthogonalEdgeStyle;rounded=0;orthogonalLoop=1;jettySize=auto;html=1;exitX=0.5;exitY=1;exitDx=0;exitDy=0;entryX=0.5;entryY=0;entryDx=0;entryDy=0;" parent="1" source="YBmtzVYIVrYmgviSf8tj-1" target="YBmtzVYIVrYmgviSf8tj-2" edge="1">
          <mxGeometry relative="1" as="geometry" />
        </mxCell>
        <mxCell id="8MuUaAawQNM4Y8sVLGZ_-25" style="edgeStyle=orthogonalEdgeStyle;rounded=0;orthogonalLoop=1;jettySize=auto;html=1;exitX=0;exitY=0.5;exitDx=0;exitDy=0;entryX=1;entryY=0.5;entryDx=0;entryDy=0;" edge="1" parent="1" source="YBmtzVYIVrYmgviSf8tj-1" target="8MuUaAawQNM4Y8sVLGZ_-23">
          <mxGeometry relative="1" as="geometry" />
        </mxCell>
        <mxCell id="YBmtzVYIVrYmgviSf8tj-1" value="User" style="rounded=1;whiteSpace=wrap;html=1;" parent="1" vertex="1">
          <mxGeometry x="280" y="120" width="120" height="60" as="geometry" />
        </mxCell>
        <mxCell id="SUlFPc-Yo__g182zqWEV-4" style="edgeStyle=orthogonalEdgeStyle;rounded=0;orthogonalLoop=1;jettySize=auto;html=1;exitX=0.5;exitY=1;exitDx=0;exitDy=0;" parent="1" source="YBmtzVYIVrYmgviSf8tj-2" target="YBmtzVYIVrYmgviSf8tj-3" edge="1">
          <mxGeometry relative="1" as="geometry" />
        </mxCell>
        <mxCell id="YBmtzVYIVrYmgviSf8tj-2" value="Load balancer" style="rounded=1;whiteSpace=wrap;html=1;" parent="1" vertex="1">
          <mxGeometry x="280" y="240" width="120" height="60" as="geometry" />
        </mxCell>
        <mxCell id="SUlFPc-Yo__g182zqWEV-5" style="edgeStyle=orthogonalEdgeStyle;rounded=0;orthogonalLoop=1;jettySize=auto;html=1;exitX=0;exitY=0.5;exitDx=0;exitDy=0;" parent="1" source="YBmtzVYIVrYmgviSf8tj-3" target="YBmtzVYIVrYmgviSf8tj-4" edge="1">
          <mxGeometry relative="1" as="geometry" />
        </mxCell>
        <mxCell id="SUlFPc-Yo__g182zqWEV-6" style="edgeStyle=orthogonalEdgeStyle;rounded=0;orthogonalLoop=1;jettySize=auto;html=1;exitX=1;exitY=0.5;exitDx=0;exitDy=0;entryX=0.5;entryY=0;entryDx=0;entryDy=0;" parent="1" source="YBmtzVYIVrYmgviSf8tj-3" target="YBmtzVYIVrYmgviSf8tj-5" edge="1">
          <mxGeometry relative="1" as="geometry" />
        </mxCell>
        <mxCell id="SUlFPc-Yo__g182zqWEV-7" style="edgeStyle=orthogonalEdgeStyle;rounded=0;orthogonalLoop=1;jettySize=auto;html=1;exitX=0.5;exitY=1;exitDx=0;exitDy=0;entryX=0.5;entryY=0;entryDx=0;entryDy=0;" parent="1" source="YBmtzVYIVrYmgviSf8tj-3" target="SUlFPc-Yo__g182zqWEV-1" edge="1">
          <mxGeometry relative="1" as="geometry" />
        </mxCell>
        <mxCell id="8MuUaAawQNM4Y8sVLGZ_-21" style="edgeStyle=orthogonalEdgeStyle;rounded=0;orthogonalLoop=1;jettySize=auto;html=1;exitX=0.75;exitY=1;exitDx=0;exitDy=0;entryX=0.5;entryY=0;entryDx=0;entryDy=0;" edge="1" parent="1" source="YBmtzVYIVrYmgviSf8tj-3" target="8MuUaAawQNM4Y8sVLGZ_-13">
          <mxGeometry relative="1" as="geometry" />
        </mxCell>
        <mxCell id="YBmtzVYIVrYmgviSf8tj-3" value="Web servers" style="rounded=1;whiteSpace=wrap;html=1;" parent="1" vertex="1">
          <mxGeometry x="280" y="360" width="120" height="60" as="geometry" />
        </mxCell>
        <mxCell id="SUlFPc-Yo__g182zqWEV-14" style="edgeStyle=orthogonalEdgeStyle;rounded=0;orthogonalLoop=1;jettySize=auto;html=1;exitX=0.5;exitY=1;exitDx=0;exitDy=0;" parent="1" source="YBmtzVYIVrYmgviSf8tj-4" target="ftOiV53g6qYkQ98rjs5c-1" edge="1">
          <mxGeometry relative="1" as="geometry" />
        </mxCell>
        <mxCell id="YBmtzVYIVrYmgviSf8tj-4" value="Post service" style="rounded=1;whiteSpace=wrap;html=1;" parent="1" vertex="1">
          <mxGeometry x="80" y="480" width="120" height="60" as="geometry" />
        </mxCell>
        <mxCell id="YBmtzVYIVrYmgviSf8tj-5" value="Notification service" style="rounded=1;whiteSpace=wrap;html=1;" parent="1" vertex="1">
          <mxGeometry x="681" y="480" width="120" height="60" as="geometry" />
        </mxCell>
        <mxCell id="YBmtzVYIVrYmgviSf8tj-14" value="Post DB" style="rounded=1;whiteSpace=wrap;html=1;" parent="1" vertex="1">
          <mxGeometry x="80" y="720" width="120" height="60" as="geometry" />
        </mxCell>
        <mxCell id="SUlFPc-Yo__g182zqWEV-15" style="edgeStyle=orthogonalEdgeStyle;rounded=0;orthogonalLoop=1;jettySize=auto;html=1;exitX=0.5;exitY=1;exitDx=0;exitDy=0;entryX=0.5;entryY=0;entryDx=0;entryDy=0;" parent="1" source="ftOiV53g6qYkQ98rjs5c-1" target="YBmtzVYIVrYmgviSf8tj-14" edge="1">
          <mxGeometry relative="1" as="geometry" />
        </mxCell>
        <mxCell id="ftOiV53g6qYkQ98rjs5c-1" value="Post cache" style="rounded=1;whiteSpace=wrap;html=1;" parent="1" vertex="1">
          <mxGeometry x="80" y="600" width="120" height="60" as="geometry" />
        </mxCell>
        <mxCell id="8MuUaAawQNM4Y8sVLGZ_-1" style="edgeStyle=orthogonalEdgeStyle;rounded=0;orthogonalLoop=1;jettySize=auto;html=1;exitX=0.5;exitY=1;exitDx=0;exitDy=0;entryX=0.5;entryY=0;entryDx=0;entryDy=0;" edge="1" parent="1" source="SUlFPc-Yo__g182zqWEV-1" target="SUlFPc-Yo__g182zqWEV-3">
          <mxGeometry relative="1" as="geometry" />
        </mxCell>
        <mxCell id="8MuUaAawQNM4Y8sVLGZ_-19" style="edgeStyle=orthogonalEdgeStyle;rounded=0;orthogonalLoop=1;jettySize=auto;html=1;exitX=1;exitY=0.25;exitDx=0;exitDy=0;entryX=0;entryY=0.5;entryDx=0;entryDy=0;" edge="1" parent="1" source="SUlFPc-Yo__g182zqWEV-1" target="8MuUaAawQNM4Y8sVLGZ_-6">
          <mxGeometry relative="1" as="geometry" />
        </mxCell>
        <mxCell id="8MuUaAawQNM4Y8sVLGZ_-20" style="edgeStyle=orthogonalEdgeStyle;rounded=0;orthogonalLoop=1;jettySize=auto;html=1;exitX=1;exitY=0.75;exitDx=0;exitDy=0;entryX=0;entryY=0.5;entryDx=0;entryDy=0;" edge="1" parent="1" source="SUlFPc-Yo__g182zqWEV-1" target="8MuUaAawQNM4Y8sVLGZ_-7">
          <mxGeometry relative="1" as="geometry" />
        </mxCell>
        <mxCell id="SUlFPc-Yo__g182zqWEV-1" value="Fanout service" style="rounded=1;whiteSpace=wrap;html=1;" parent="1" vertex="1">
          <mxGeometry x="280" y="480" width="120" height="60" as="geometry" />
        </mxCell>
        <mxCell id="8MuUaAawQNM4Y8sVLGZ_-4" style="edgeStyle=orthogonalEdgeStyle;rounded=0;orthogonalLoop=1;jettySize=auto;html=1;exitX=0.5;exitY=1;exitDx=0;exitDy=0;entryX=0.5;entryY=0;entryDx=0;entryDy=0;" edge="1" parent="1" source="SUlFPc-Yo__g182zqWEV-3" target="8MuUaAawQNM4Y8sVLGZ_-2">
          <mxGeometry relative="1" as="geometry" />
        </mxCell>
        <mxCell id="SUlFPc-Yo__g182zqWEV-3" value="Message queue" style="rounded=1;whiteSpace=wrap;html=1;" parent="1" vertex="1">
          <mxGeometry x="280" y="600" width="120" height="60" as="geometry" />
        </mxCell>
        <mxCell id="8MuUaAawQNM4Y8sVLGZ_-5" style="edgeStyle=orthogonalEdgeStyle;rounded=0;orthogonalLoop=1;jettySize=auto;html=1;exitX=0.5;exitY=1;exitDx=0;exitDy=0;" edge="1" parent="1" source="8MuUaAawQNM4Y8sVLGZ_-2" target="8MuUaAawQNM4Y8sVLGZ_-3">
          <mxGeometry relative="1" as="geometry" />
        </mxCell>
        <mxCell id="8MuUaAawQNM4Y8sVLGZ_-2" value="Fanout workers" style="rounded=1;whiteSpace=wrap;html=1;" vertex="1" parent="1">
          <mxGeometry x="280" y="720" width="120" height="60" as="geometry" />
        </mxCell>
        <mxCell id="8MuUaAawQNM4Y8sVLGZ_-3" value="Newsfeed cache" style="rounded=1;whiteSpace=wrap;html=1;" vertex="1" parent="1">
          <mxGeometry x="280" y="840" width="120" height="60" as="geometry" />
        </mxCell>
        <mxCell id="8MuUaAawQNM4Y8sVLGZ_-6" value="Graph DB" style="rounded=1;whiteSpace=wrap;html=1;" vertex="1" parent="1">
          <mxGeometry x="480" y="240" width="120" height="60" as="geometry" />
        </mxCell>
        <mxCell id="8MuUaAawQNM4Y8sVLGZ_-11" style="edgeStyle=orthogonalEdgeStyle;rounded=0;orthogonalLoop=1;jettySize=auto;html=1;exitX=0.5;exitY=1;exitDx=0;exitDy=0;entryX=0.5;entryY=0;entryDx=0;entryDy=0;" edge="1" parent="1" source="8MuUaAawQNM4Y8sVLGZ_-7" target="8MuUaAawQNM4Y8sVLGZ_-8">
          <mxGeometry relative="1" as="geometry" />
        </mxCell>
        <mxCell id="8MuUaAawQNM4Y8sVLGZ_-7" value="User cache" style="rounded=1;whiteSpace=wrap;html=1;" vertex="1" parent="1">
          <mxGeometry x="480" y="600" width="120" height="60" as="geometry" />
        </mxCell>
        <mxCell id="8MuUaAawQNM4Y8sVLGZ_-8" value="User DB" style="rounded=1;whiteSpace=wrap;html=1;" vertex="1" parent="1">
          <mxGeometry x="480" y="720" width="120" height="60" as="geometry" />
        </mxCell>
        <mxCell id="8MuUaAawQNM4Y8sVLGZ_-15" style="edgeStyle=orthogonalEdgeStyle;rounded=0;orthogonalLoop=1;jettySize=auto;html=1;exitX=0.5;exitY=1;exitDx=0;exitDy=0;entryX=0.5;entryY=0;entryDx=0;entryDy=0;" edge="1" parent="1" source="8MuUaAawQNM4Y8sVLGZ_-13" target="8MuUaAawQNM4Y8sVLGZ_-7">
          <mxGeometry relative="1" as="geometry" />
        </mxCell>
        <mxCell id="8MuUaAawQNM4Y8sVLGZ_-17" style="edgeStyle=orthogonalEdgeStyle;rounded=0;orthogonalLoop=1;jettySize=auto;html=1;exitX=1;exitY=0.25;exitDx=0;exitDy=0;entryX=0;entryY=0.5;entryDx=0;entryDy=0;" edge="1" parent="1" source="8MuUaAawQNM4Y8sVLGZ_-13" target="ftOiV53g6qYkQ98rjs5c-1">
          <mxGeometry relative="1" as="geometry" />
        </mxCell>
        <mxCell id="8MuUaAawQNM4Y8sVLGZ_-18" style="edgeStyle=orthogonalEdgeStyle;rounded=0;orthogonalLoop=1;jettySize=auto;html=1;exitX=1;exitY=0.75;exitDx=0;exitDy=0;entryX=1;entryY=0.5;entryDx=0;entryDy=0;" edge="1" parent="1" source="8MuUaAawQNM4Y8sVLGZ_-13" target="8MuUaAawQNM4Y8sVLGZ_-3">
          <mxGeometry relative="1" as="geometry">
            <Array as="points">
              <mxPoint x="640" y="525" />
              <mxPoint x="640" y="870" />
            </Array>
          </mxGeometry>
        </mxCell>
        <mxCell id="8MuUaAawQNM4Y8sVLGZ_-13" value="Newsfeed service" style="rounded=1;whiteSpace=wrap;html=1;" vertex="1" parent="1">
          <mxGeometry x="480" y="480" width="120" height="60" as="geometry" />
        </mxCell>
        <mxCell id="8MuUaAawQNM4Y8sVLGZ_-24" style="edgeStyle=orthogonalEdgeStyle;rounded=0;orthogonalLoop=1;jettySize=auto;html=1;exitX=0;exitY=0.5;exitDx=0;exitDy=0;entryX=1;entryY=0.5;entryDx=0;entryDy=0;" edge="1" parent="1" source="8MuUaAawQNM4Y8sVLGZ_-22" target="YBmtzVYIVrYmgviSf8tj-1">
          <mxGeometry relative="1" as="geometry" />
        </mxCell>
        <mxCell id="8MuUaAawQNM4Y8sVLGZ_-22" value="CDN" style="rounded=1;whiteSpace=wrap;html=1;" vertex="1" parent="1">
          <mxGeometry x="480" y="120" width="120" height="60" as="geometry" />
        </mxCell>
        <mxCell id="8MuUaAawQNM4Y8sVLGZ_-26" style="edgeStyle=orthogonalEdgeStyle;rounded=0;orthogonalLoop=1;jettySize=auto;html=1;exitX=1;exitY=0.5;exitDx=0;exitDy=0;entryX=0;entryY=0.5;entryDx=0;entryDy=0;" edge="1" parent="1" source="8MuUaAawQNM4Y8sVLGZ_-23" target="YBmtzVYIVrYmgviSf8tj-1">
          <mxGeometry relative="1" as="geometry" />
        </mxCell>
        <mxCell id="8MuUaAawQNM4Y8sVLGZ_-23" value="DNS" style="rounded=1;whiteSpace=wrap;html=1;" vertex="1" parent="1">
          <mxGeometry x="80" y="120" width="120" height="60" as="geometry" />
        </mxCell>
      </root>
    </mxGraphModel>
  </diagram>
</mxfile>
